<svg width="1822" height="363" viewBox="0 0 1822 363" fill="none" xmlns="http://www.w3.org/2000/svg">
<path fill-rule="evenodd" clip-rule="evenodd" d="M227.175 363C327.415 363 408.676 281.74 408.676 181.5C408.676 174.446 408.273 167.487 407.49 160.643C434.875 160.754 461.599 161.008 478.865 161.223L405.074 145.344C388.313 62.4268 315.034 0 227.175 0C166.559 0 112.883 29.7155 79.9194 75.3739L0 58.1762L55.6071 122.133C49.1713 140.735 45.6755 160.709 45.6755 181.5C45.6755 281.74 126.936 363 227.175 363ZM73.4194 142.619C70.2832 155.06 68.6174 168.085 68.6174 181.5C68.6174 269.069 139.606 340.058 227.175 340.058C314.745 340.058 385.734 269.069 385.734 181.5C385.734 174.411 385.268 167.43 384.367 160.587C358.525 160.57 334.342 160.73 319.481 161.223C285.9 162.336 276.516 163.356 267.683 164.316C265.071 164.6 262.507 164.879 259.379 165.153C226.557 168.032 217.069 172.124 208.656 175.971C203.848 178.169 191.107 185.346 185.579 195.84C184.153 198.547 172.838 224.687 192.31 262.67C207.888 293.056 220.757 311.711 225.245 317.24L73.4194 142.619ZM104.761 80.7195L380.248 140.001C362.008 72.5594 300.386 22.9419 227.175 22.9419C177.882 22.9419 133.842 45.436 104.761 80.7195Z" fill="white"/>
<path d="M508 51C508 47.134 511.134 44 515 44H682.155V114.603H508V51Z" fill="white"/>
<path fill-rule="evenodd" clip-rule="evenodd" d="M578.603 124.017H508V310C508 313.866 511.134 317 515 317H555.066V317H682.153V246.397H578.603V124.017Z" fill="white"/>
<path fill-rule="evenodd" clip-rule="evenodd" d="M715.098 44H924.615C928.481 44 931.615 47.134 931.615 51V95.7758H931.616V189.914H931.615V225.276C931.615 229.142 928.481 232.276 924.615 232.276H901.873L957.339 316.328H872.516L817.05 232.276H785.703V317H715.099V232.276H715.098V161.672H715.099V124.017H785.703V161.672H861.013V114.603H715.098V44Z" fill="white"/>
<path fill-rule="evenodd" clip-rule="evenodd" d="M959.855 44H1129.3L1176.37 114.603H959.855V44ZM1030.46 317H1042.22L1089.29 246.396H1030.46V114.604H959.855V317H1030.46V317Z" fill="white"/>
<path d="M1049.29 142.845H1148.14L1101.07 213.448H1049.29V142.845Z" fill="white"/>
<path fill-rule="evenodd" clip-rule="evenodd" d="M1251.69 44H1265.81H1336.41H1336.42V194.621H1265.81V154.674L1234.32 204.035H1265.81H1317.58H1336.42V317H1265.81V274.638H1189.28L1162.26 317H1077.54L1251.69 44Z" fill="white"/>
<path fill-rule="evenodd" clip-rule="evenodd" d="M1567.05 44H1369.36V114.603H1435.26V317H1505.86V114.603H1567.05V44Z" fill="white"/>
<path fill-rule="evenodd" clip-rule="evenodd" d="M1769.45 44H1670.6H1600V114.603V246.396V317L1670.6 317L1769.45 317L1821.22 246.396H1670.6V213.448H1731.79L1783.57 142.845H1670.6V114.603H1821.22L1769.45 44Z" fill="white"/>
</svg>
