<svg width="445" height="337" viewBox="0 0 445 337" fill="none" xmlns="http://www.w3.org/2000/svg">
<path fill-rule="evenodd" clip-rule="evenodd" d="M211.11 337C304.261 337 379.775 261.56 379.775 168.5C379.775 161.952 379.401 155.491 378.673 149.137C404.121 149.24 428.955 149.475 445 149.675L376.428 134.933C360.852 57.9554 292.756 0 211.11 0C154.78 0 104.9 27.5871 74.2676 69.9752L0 54.0093L51.6747 113.385C45.694 130.655 42.4454 149.198 42.4454 168.5C42.4454 261.56 117.959 337 211.11 337ZM68.2273 132.404C65.3129 143.954 63.7649 156.046 63.7649 168.5C63.7649 249.797 129.734 315.701 211.11 315.701C292.486 315.701 358.455 249.797 358.455 168.5C358.455 161.918 358.023 155.438 357.185 149.084C333.171 149.069 310.698 149.218 296.888 149.675C265.682 150.708 256.961 151.655 248.753 152.547C246.325 152.81 243.943 153.069 241.036 153.324C210.535 155.997 201.719 159.796 193.9 163.367C189.432 165.407 177.592 172.071 172.455 181.813C171.13 184.326 160.615 208.594 178.71 243.856C193.186 272.066 205.145 289.385 209.316 294.518L68.2273 132.404ZM97.3522 74.9379L353.357 129.974C336.407 67.3623 279.143 21.2987 211.11 21.2987C165.302 21.2987 124.377 42.1816 97.3522 74.9379Z" fill="white"/>
</svg>
